<svg xmlns="http://www.w3.org/2000/svg" viewBox="0 0 302.19673 71.0225">
  <title>Recurso 3logo_svg</title>
  <g id="Capa_2" data-name="Capa 2">
    <g id="Capa_1-2" data-name="Capa 1">
      <g>
        <path d="M29.45458,41.6715a7.63946,7.63946,0,0,1-1.71215,1.26H39.96829a3.0352,3.0352,0,0,0,3.03832-3.03167v-25.665a102.74259,102.74259,0,0,1-5.3131,14.10007C35.60817,32.82276,32.92273,38.084,29.45458,41.6715ZM7.98378,27.05582c11.70192,1.9877,24.65147-3.24771,30.93945-13.44957a40.52968,40.52968,0,0,0,4.083-9.10615V3.05067A3.0352,3.0352,0,0,0,39.9679.019H3.03832A3.0352,3.0352,0,0,0,0,3.05067V24.34761l.1288.03859C2.80667,25.19425,5.19187,26.58157,7.98378,27.05582Zm7.00847-14.49315a6.91091,6.91091,0,1,1,5.26655,8.23315l-.01929-.00427A6.92568,6.92568,0,0,1,14.99225,12.56267ZM9.44272,37.202c-2.498-2.417-4.74528-5.08223-7.26765-7.47176C1.48686,29.07813.72768,28.48373.0004,27.86028v12.04A3.03521,3.03521,0,0,0,3.03872,42.932H16.55451c-.388-.23991-.76994-.48817-1.14156-.7444A47.24929,47.24929,0,0,1,9.44272,37.202Z" fill="#d17439"/>
        <path d="M124.87144,26.95994l6.85776.888a17.73676,17.73676,0,0,1-5.75406,11.07594,16.7772,16.7772,0,0,1-11.37057,4.00086q-8.44751,0-13.58074-5.50834-5.134-5.50953-5.13365-15.79174a28.524,28.524,0,0,1,2.209-11.63614A15.376,15.376,0,0,1,104.821,2.508,19.98083,19.98083,0,0,1,114.64325.01267q6.70226,0,10.96426,3.38378a15.50168,15.50168,0,0,1,5.46221,9.60706l-6.78,1.04318a11.22338,11.22338,0,0,0-3.42867-6.22329,8.88555,8.88555,0,0,0-5.94705-2.088A10.83847,10.83847,0,0,0,106.35168,9.504q-3.2937,3.77049-3.29313,11.92736,0,8.275,3.17669,12.02325a10.3507,10.3507,0,0,0,8.292,3.75019A9.78174,9.78174,0,0,0,121.385,34.6911Q124.13441,32.17923,124.87144,26.95994Zm84.58017,1.81741,7.207.888a17.533,17.533,0,0,1-6.31589,9.78012q-4.6101,3.48046-11.778,3.47927-9.02826,0-14.3168-5.54692-5.28716-5.54595-5.28755-15.55941,0-10.362,5.34576-16.083A18.12217,18.12217,0,0,1,198.17674.013a17.61456,17.61456,0,0,1,13.48383,5.60621q5.22912,5.60741,5.22934,15.77345c0,.41336-.01276,1.03085-.03858,1.856h-30.685q.38759,6.76515,3.83618,10.361a11.43238,11.43238,0,0,0,8.6014,3.59544,10.68564,10.68564,0,0,0,6.54754-2.01077,13.3527,13.3527,0,0,0,4.3003-6.417ZM186.55414,17.526h22.97523q-.46532-5.17952-2.63479-7.76977A10.69832,10.69832,0,0,0,198.2545,5.735,11.08815,11.08815,0,0,0,190.177,8.94336a12.69178,12.69178,0,0,0-3.62288,8.58259Zm75.93931,3.944q0-11.404,6.35459-16.89382a19.16652,19.16652,0,0,1,12.9396-4.563,18.47774,18.47774,0,0,1,13.87064,5.54931q5.38522,5.54593,5.38565,15.32745,0,7.92652-2.38242,12.46925a16.84673,16.84673,0,0,1-6.93508,7.0544,20.23713,20.23713,0,0,1-9.93833,2.51169q-8.63892,0-13.9667-5.52665-5.329-5.528-5.32785-15.92862Zm7.168,0q0,7.88652,3.44825,11.81119a11.497,11.497,0,0,0,17.318-.02029q3.448-3.94177,3.44821-12.02325,0-7.615-3.46777-11.54025a11.5126,11.5126,0,0,0-17.29853-.0183q-3.44975,3.90537-3.44824,11.7909Zm-47.03619,8.273,6.89642-1.08178a9.60924,9.60924,0,0,0,3.2349,6.33946q2.65374,2.20335,7.42038,2.20413,4.80331,0,7.12811-1.95348a5.8277,5.8277,0,0,0,2.32535-4.57934,4.225,4.225,0,0,0-2.05387-3.71161q-1.43307-.92919-7.1293-2.3589a64.99582,64.99582,0,0,1-10.63452-3.3428,10.1288,10.1288,0,0,1-6.02481-9.4137,10.55912,10.55912,0,0,1,1.25879-5.08462,11.27543,11.27543,0,0,1,3.42871-3.88463A14.39783,14.39783,0,0,1,232.9117.84659a21.13375,21.13375,0,0,1,6.02478-.83311,23.83143,23.83143,0,0,1,8.50415,1.3933,11.56661,11.56661,0,0,1,5.40518,3.7685,14.70722,14.70722,0,0,1,2.40195,6.35975l-6.81909.927a7.43993,7.43993,0,0,0-2.693-4.94817,9.864,9.864,0,0,0-6.29513-1.77842q-4.80506,0-6.85773,1.58506a4.61008,4.61008,0,0,0-2.05386,3.71161,3.836,3.836,0,0,0,.8525,2.43648,6.14892,6.14892,0,0,0,2.67347,1.856q1.04611.38491,6.16037,1.77842a86.1052,86.1052,0,0,1,10.3255,3.22666,10.46166,10.46166,0,0,1,4.5906,3.65471,10.17663,10.17663,0,0,1,1.6659,5.95234,11.6687,11.6687,0,0,1-2.03351,6.5535,13.13527,13.13527,0,0,1-5.86969,4.75479,21.42261,21.42261,0,0,1-8.67877,1.68055q-8.02044,0-12.22428-3.3245-4.204-3.3253-5.36569-9.85811Zm-56.21851-2.783,6.85776.888a17.737,17.737,0,0,1-5.75407,11.07595,16.77726,16.77726,0,0,1-11.37059,4.00085q-8.4475,0-13.58077-5.50833-5.134-5.50953-5.13363-15.79175a28.52393,28.52393,0,0,1,2.209-11.63613,15.37567,15.37567,0,0,1,6.7218-7.48051A19.98071,19.98071,0,0,1,156.17851.01267q6.70221,0,10.96427,3.38378a15.50185,15.50185,0,0,1,5.4622,9.60706l-6.78,1.04318a11.22343,11.22343,0,0,0-3.42866-6.22329,8.88554,8.88554,0,0,0-5.94707-2.088,10.839,10.839,0,0,0-8.56232,3.76851q-3.2937,3.77049-3.2931,11.92736,0,8.275,3.17666,12.02325a10.35077,10.35077,0,0,0,8.292,3.7502,9.7818,9.7818,0,0,0,6.85776-2.51366Q165.66971,32.17925,166.40675,26.95994Zm-84.8916,9.97389a25.97713,25.97713,0,0,1-7.459,4.63862,21.58623,21.58623,0,0,1-7.69069,1.35271q-6.78,0-10.42241-3.30421a10.90152,10.90152,0,0,1-3.64119-8.4481,11.213,11.213,0,0,1,1.37481-5.50833A11.35837,11.35837,0,0,1,57.28,21.66367,16.93624,16.93624,0,0,1,62.2972,19.382a49.851,49.851,0,0,1,6.19945-1.04318A63.77657,63.77657,0,0,0,80.933,15.94089q.0381-1.42992.03869-1.817,0-4.25031-1.97532-5.99133-2.6735-2.35909-7.9427-2.3589-4.92111,0-7.26485,1.72154-2.34452,1.72053-3.46774,6.0888l-6.8191-.929a16.845,16.845,0,0,1,3.06145-7.05441,13.42429,13.42429,0,0,1,6.16037-4.13731,27.54892,27.54892,0,0,1,9.337-1.45061A24.75482,24.75482,0,0,1,80.62317,1.2512,11.3003,11.3003,0,0,1,85.46574,4.362,10.96124,10.96124,0,0,1,87.636,9.09853a39.20871,39.20871,0,0,1,.34807,6.417v9.27884a97.9435,97.9435,0,0,0,.44617,12.2739,15.41892,15.41892,0,0,0,1.76278,4.92985H82.90952a14.69952,14.69952,0,0,1-1.39437-5.06433Zm-.58175-15.5411a51.23122,51.23122,0,0,1-11.39013,2.62784,26.43281,26.43281,0,0,0-6.083,1.3933,6.0585,6.0585,0,0,0-2.75125,2.261,6.14019,6.14019,0,0,0,1.14318,7.94481q2.11,1.85482,6.17871,1.856a14.40243,14.40243,0,0,0,7.168-1.76012,10.83314,10.83314,0,0,0,4.61092-4.81368,16.77915,16.77915,0,0,0,1.1228-6.95693V21.39274Z" fill="#12518f"/>
      </g>
      <path d="M130.96552,69.56467a3.15257,3.15257,0,0,0,2.43093-.91258,3.96652,3.96652,0,0,0,.915-2.62539h1.4613A5.28639,5.28639,0,0,1,134.3251,69.684a4.57749,4.57749,0,0,1-3.35958,1.32666,4.729,4.729,0,0,1-3.981-1.73388,8.41178,8.41178,0,0,1-1.37251-5.1455V62.27811a8.59555,8.59555,0,0,1,1.34521-5.2508,4.70437,4.70437,0,0,1,3.99468-1.769,4.41017,4.41017,0,0,1,3.46887,1.425,6.08428,6.08428,0,0,1,1.352,3.98021h-1.46131a4.705,4.705,0,0,0-.92868-2.91321,2.98882,2.98882,0,0,0-2.43094-1.0319,3.24092,3.24092,0,0,0-2.88845,1.36183,7.55943,7.55943,0,0,0-.92185,4.1838v1.72686a7.55266,7.55266,0,0,0,.92867,4.247A3.28974,3.28974,0,0,0,130.96552,69.56467Zm13.8072-12.56541a5.4901,5.4901,0,0,0-.956-.09827,2.81538,2.81538,0,0,0-2.11.8845,5.06042,5.06042,0,0,0-1.20864,2.45692V70.72993h-1.51593V55.53912h1.48862l.02731,2.27441a3.57363,3.57363,0,0,1,3.38694-2.5552,1.85,1.85,0,0,1,.915.18252Zm7.27913,14.01141a5.04575,5.04575,0,0,1-4.08344-1.755,7.66535,7.66535,0,0,1-1.50227-4.99807V62.40447a8.59457,8.59457,0,0,1,1.42037-5.2438,4.60692,4.60692,0,0,1,3.90591-1.90236,4.37671,4.37671,0,0,1,3.66692,1.61455,8.08094,8.08094,0,0,1,1.29057,4.94193V63.2749h-8.78143v.85641a6.51169,6.51169,0,0,0,1.08572,4.02935,3.63649,3.63649,0,0,0,3.066,1.418,4.36137,4.36137,0,0,0,3.53716-1.64263l.79211,1.03893A5.0357,5.0357,0,0,1,152.05185,71.01067Zm-.25948-14.29227a3.21989,3.21989,0,0,0-2.75187,1.29866,6.76962,6.76962,0,0,0-1.05843,3.7977h7.25185v-.4071q-.1092-4.68924-3.44155-4.68922Zm1.76177-7.55328h1.98027l-3.15477,3.94512h-1.434Zm5.8725,13.26738a9.66405,9.66405,0,0,1,1.21545-5.37014,4.06391,4.06391,0,0,1,3.60545-1.80407,4.01906,4.01906,0,0,1,3.75568,2.31653v-8.4097h1.51593V70.72991h-1.42032l-.06828-1.9515a4.07007,4.07007,0,0,1-3.79668,2.2323,4.01483,4.01483,0,0,1-3.55765-1.82515,9.41414,9.41414,0,0,1-1.2496-5.18059Zm1.54324,1.418a8.37734,8.37734,0,0,0,.85356,4.29609,2.954,2.954,0,0,0,2.71092,1.37588,3.60719,3.60719,0,0,0,3.46887-2.34461V59.30171a3.54843,3.54843,0,0,0-3.45523-2.54116,2.96292,2.96292,0,0,0-2.71092,1.36184,8.1967,8.1967,0,0,0-.8672,4.21187Zm14.33984,6.87937h-1.5296V55.53911h1.5296Zm-1.74809-19.57113a1.29471,1.29471,0,0,1,.25951-.8143.876.876,0,0,1,.73747-.33694.895.895,0,0,1,.74428.33694,1.273,1.273,0,0,1,.26631.8143,1.24447,1.24447,0,0,1-.26631.80726.9028.9028,0,0,1-.74428.32994.88359.88359,0,0,1-.73747-.32994,1.26575,1.26575,0,0,1-.25953-.80722Zm8.2215.50542v3.8749h2.52655v1.404h-2.52657V67.03751a3.7439,3.7439,0,0,0,.36192,1.86023,1.29255,1.29255,0,0,0,1.20865.61074,6.2851,6.2851,0,0,0,1.09256-.14041l.041,1.404a3.67384,3.67384,0,0,1-1.4886.23867q-2.6631,0-2.73138-3.7626V56.94306h-2.28075v-1.404h2.28072V51.66419Zm4.9848,10.69814a8.40471,8.40471,0,0,1,1.44759-5.19464,5.06435,5.06435,0,0,1,7.90057-.02808,8.39317,8.39317,0,0,1,1.45448,5.18059v1.61459a8.29089,8.29089,0,0,1-1.45448,5.20868,5.09121,5.09121,0,0,1-7.846.04212,8.11774,8.11774,0,0,1-1.50226-5.02616Zm1.52959,1.57246a7.20461,7.20461,0,0,0,1.03111,4.12764,3.51393,3.51393,0,0,0,5.72227.05615,7.3655,7.3655,0,0,0,1.00379-4.14167V62.36234a7.20266,7.20266,0,0,0-1.03794-4.13465,3.42475,3.42475,0,0,0-5.654-.03511A7.08207,7.08207,0,0,0,188.29749,62.25Zm22.971,4.35227,3.63275-12.74791h1.55692l-4.60242,15.1908H210.654l-4.62973-15.19081h1.55688Zm12.64642,2.72364a5.04573,5.04573,0,0,1-4.08343-1.7549,7.66542,7.66542,0,0,1-1.50226-4.99808V62.40447a8.59436,8.59436,0,0,1,1.42026-5.2438,4.60685,4.60685,0,0,1,3.90591-1.90236,4.37656,4.37656,0,0,1,3.6669,1.61455,8.08078,8.08078,0,0,1,1.29056,4.94193V63.2749H219.8315v.85641a6.51177,6.51177,0,0,0,1.08572,4.02935,3.63653,3.63653,0,0,0,3.066,1.418,4.36121,4.36121,0,0,0,3.53714-1.64263l.79211,1.03893a5.03565,5.03565,0,0,1-4.39755,2.03573Zm-.25949-14.29227a3.21992,3.21992,0,0,0-2.75189,1.29866,6.76974,6.76974,0,0,0-1.05844,3.7977H227.097v-.4071q-.10922-4.68924-3.44159-4.68922Zm9.69644,1.20741a5.6211,5.6211,0,0,1,1.65934-1.94448,3.83673,3.83673,0,0,1,2.30117-.723q3.865,0,3.96054,5.29293V70.72993h-1.50225V60.71971a5.33245,5.33245,0,0,0-.69651-3.00447,2.44183,2.44183,0,0,0-2.14413-.96873,2.99714,2.99714,0,0,0-2.13733.9196,5.8019,5.8019,0,0,0-1.44083,2.52011v10.5437H231.836V49.16515h1.5159Zm13.62964,12.80412H245.452V55.53912h1.52957Zm-1.74811-19.57115a1.29465,1.29465,0,0,1,.25949-.8143.876.876,0,0,1,.73749-.33695.89505.89505,0,0,1,.7443.33695,1.273,1.273,0,0,1,.26629.8143,1.24465,1.24465,0,0,1-.26629.80728.90285.90285,0,0,1-.7443.32992.88362.88362,0,0,1-.73749-.32992,1.266,1.266,0,0,1-.25946-.80728Zm10.61151,18.40589a3.15257,3.15257,0,0,0,2.43094-.91257,3.96657,3.96657,0,0,0,.915-2.62539h1.46131a5.28639,5.28639,0,0,1-1.44767,3.6573,4.57746,4.57746,0,0,1-3.35959,1.32666,4.729,4.729,0,0,1-3.981-1.73388,8.41179,8.41179,0,0,1-1.3725-5.1455V62.27811a8.59542,8.59542,0,0,1,1.34521-5.2508,4.70436,4.70436,0,0,1,3.99469-1.769,4.4102,4.4102,0,0,1,3.46888,1.425,6.08426,6.08426,0,0,1,1.352,3.98021H259.1909a4.70488,4.70488,0,0,0-.92868-2.91321,2.98882,2.98882,0,0,0-2.43094-1.0319,3.24089,3.24089,0,0,0-2.88845,1.36183,7.55952,7.55952,0,0,0-.92185,4.1838v1.72686a7.55267,7.55267,0,0,0,.92868,4.247A3.28975,3.28975,0,0,0,255.84492,69.56467Zm15.93769-.64582a4.2217,4.2217,0,0,1-3.89224,2.0919,3.48759,3.48759,0,0,1-3.03186-1.432,7.27538,7.27538,0,0,1-1.03794-4.21187V55.53912h1.50226v9.78554a5.67077,5.67077,0,0,0,.71017,3.13082,2.31146,2.31146,0,0,0,2.04856,1.067,3.51677,3.51677,0,0,0,3.67373-2.86407V55.53912h1.52961v15.1908h-1.475ZM279.02083,70.73h-1.5296V49.16515h1.5296Zm12.00448,0a10.129,10.129,0,0,1-.27316-2.10594,4.92937,4.92937,0,0,1-1.75494,1.762,4.5441,4.5441,0,0,1-2.32852.62476,3.93342,3.93342,0,0,1-2.97718-1.10919,4.37875,4.37875,0,0,1-1.06521-3.1589,4.4756,4.4756,0,0,1,1.48178-3.538,6.02635,6.02635,0,0,1,4.09027-1.31973h2.54019v-2.12a3.01841,3.01841,0,0,0-.78528-2.33759,3.32789,3.32789,0,0,0-2.30121-.709,3.24568,3.24568,0,0,0-2.308.84238,2.84386,2.84386,0,0,0-.90134,2.17613l-1.51593-.014a4.20331,4.20331,0,0,1,1.3657-3.16592,4.77781,4.77781,0,0,1,3.42791-1.29866,4.03475,4.03475,0,0,1,4.52045,4.5067V67.22a10.56814,10.56814,0,0,0,.39606,3.34141v.16847Zm-4.16537-1.22145a4.05214,4.05214,0,0,0,2.36948-.716,4.14854,4.14854,0,0,0,1.50909-1.90937V63.19067h-2.40363a4.73274,4.73274,0,0,0-3.12747.94767,3.12489,3.12489,0,0,0-1.05157,2.478q0,2.89216,2.70407,2.89215Zm15.30948-12.50924a5.49011,5.49011,0,0,0-.956-.09827,2.81553,2.81553,0,0,0-2.11.88449,5.06057,5.06057,0,0,0-1.20865,2.45692V70.72993h-1.5159V55.53912h1.48859l.02731,2.27441a3.57361,3.57361,0,0,1,3.38693-2.5552,1.84979,1.84979,0,0,1,.915.18252Z" fill="#12518f"/>
    </g>
  </g>
</svg>
